# xmcd CD database file
# Copyright (C) 1997 Ti Kan
# 
# Track frame offsets:
#     150
#     12457
#     24812
#     43617
#     57085
#     71847
#     84970
#     97695
#     109925
#     122457
#     136407
#     149420
#     161807
#     172195
#     187977
#     201320
# 
# Disc length: 2882 seconds
# 
# Revision: 1
# Processed by: cddbd v1.4b41PL1 Copyright (c) Steve Scherf et al.
# Submitted via: DiscPlay 4.0.4
# 
DISCID=d80b4010
DTITLE=Dionne Warwick - Dionne Warwick
DYEAR=1900
DGENRE=
TTITLE0=Walk On By
TTITLE1=I Just dont Know What To Do With Myself
TTITLE2=You've Lost That Lovin' Feelin'
TTITLE3=You'll Never Get To Heaven
TTITLE4=The Windows Of The World
TTITLE5=Do You Know The Way To San Jos 
TTITLE6=Alfie
TTITLE7=Promises, Promises
TTITLE8=Trains And Boats And Planes
TTITLE9=A House Is Not A Home
TTITLE10=Are You There With Another Girl
TTITLE11=Don't Make Me Over
TTITLE12=I'll Never Fall In Love Again
TTITLE13=This Girl's In Love With You
TTITLE14=Say A Little Prayer
TTITLE15=Valley Of The Jolls
EXTD=
EXTT0=
EXTT1=
EXTT2=
EXTT3=
EXTT4=
EXTT5=
EXTT6=
EXTT7=
EXTT8=
EXTT9=
EXTT10=
EXTT11=
EXTT12=
EXTT13=
EXTT14=
EXTT15=
PLAYORDER=
